<?xml version="1.0" encoding="UTF-8" standalone="no"?>
<!-- Created with Inkscape (http://www.inkscape.org/) -->

<svg
   width="287.00003mm"
   height="45.557949mm"
   viewBox="0 0 1084.7245 172.18753"
   version="1.1"
   id="svg1"
   inkscape:version="1.4.2 (f4327f4, 2025-05-13)"
   sodipodi:docname="paxxword_name_white.svg"
   xmlns:inkscape="http://www.inkscape.org/namespaces/inkscape"
   xmlns:sodipodi="http://sodipodi.sourceforge.net/DTD/sodipodi-0.dtd"
   xmlns="http://www.w3.org/2000/svg"
   xmlns:svg="http://www.w3.org/2000/svg">
  <sodipodi:namedview
     id="namedview1"
     pagecolor="#505050"
     bordercolor="#eeeeee"
     borderopacity="1"
     inkscape:showpageshadow="0"
     inkscape:pageopacity="0"
     inkscape:pagecheckerboard="0"
     inkscape:deskcolor="#505050"
     inkscape:document-units="mm"
     showgrid="true"
     inkscape:zoom="0.50837798"
     inkscape:cx="259.64933"
     inkscape:cy="-24.588005"
     inkscape:window-width="1920"
     inkscape:window-height="1009"
     inkscape:window-x="-8"
     inkscape:window-y="-8"
     inkscape:window-maximized="1"
     inkscape:current-layer="g3">
    <inkscape:grid
       id="grid1"
       units="mm"
       originx="-18.89756"
       originy="-310.75663"
       spacingx="3.7795277"
       spacingy="3.7795276"
       empcolor="#0099e5"
       empopacity="0.30196078"
       color="#0099e5"
       opacity="0.14901961"
       empspacing="5"
       enabled="true"
       visible="true" />
  </sodipodi:namedview>
  <defs
     id="defs1" />
  <g
     inkscape:label="Capa 1"
     inkscape:groupmode="layer"
     id="layer1"
     transform="translate(-18.89756,-310.75664)">
    <g
       id="g3"
       transform="translate(1.1307781e-5,-1.6897986e-4)"
       style="stroke:#ffffff;stroke-opacity:1;stroke-width:1.0015748;stroke-dasharray:none">
      <path
         d="m 941.46683,482.94402 h -24.57627 l -24.31662,-68.45853 h -32.8906 v 68.45853 h -22.8966 v -172.1872 h 48.22163 c 10.4076,0 19.08058,0.69391 26.01895,2.08149 6.93837,1.3106 13.18283,3.70056 18.73354,7.1697 6.24454,3.93172 11.10143,8.90423 14.57065,14.91744 3.54628,5.93624 5.31938,13.49129 5.31938,22.66534 0,12.41203 -3.12227,22.81954 -9.36681,31.22271 -6.24454,8.32603 -14.84038,14.60914 -25.78761,18.84925 z M 925.71351,359.20978 c 0,-4.93394 -0.88659,-9.28976 -2.65969,-13.06729 -1.69604,-3.85466 -4.54849,-7.09256 -8.55735,-9.71368 -3.31504,-2.23568 -7.24676,-3.77753 -11.79517,-4.62563 -4.5485,-0.92508 -9.90645,-1.38766 -16.07394,-1.38766 h -26.94402 v 64.98939 h 23.12793 c 7.24675,0 13.56835,-0.61643 18.96487,-1.85015 5.39651,-1.3106 9.98358,-3.70056 13.76111,-7.1697 3.46914,-3.2379 6.01321,-6.93837 7.6322,-11.10134 1.69604,-4.2402 2.54406,-9.59815 2.54406,-16.07394 z"
         id="text42-0-5-8-9"
         style="font-size:27.5084px;font-family:'open sauce';-inkscape-font-specification:'open sauce';fill:#ffffff;fill-opacity:1;stroke:#ffffff;stroke-width:1.0015748;stroke-opacity:1;stroke-dasharray:none"
         aria-label="R"
         sodipodi:nodetypes="cccccccscccscccscccsccscccs" />
      <path
         d="m 268.09926,482.94385 h -24.39987 l -16.88347,-47.99038 h -74.47191 l -16.88313,47.99038 h -23.24364 l 62.6764,-172.18703 h 30.52896 z m -48.33716,-67.64908 -30.18209,-84.53238 -30.29755,84.53238 z"
         id="text39-6-7-4-8"
         style="font-size:779.765px;font-family:'open sauce';-inkscape-font-specification:'open sauce';fill:#ffffff;fill-opacity:1;stroke:#ffffff;stroke-width:1.0015748;stroke-opacity:1;stroke-dasharray:none"
         aria-label="A" />
      <g
         id="g1"
         style="stroke:#ffffff;stroke-opacity:1;stroke-width:1.0015748;stroke-dasharray:none;fill:#ffffff;fill-opacity:1">
        <path
           d="M 564.45822,310.75682 503.2969,482.94376 H 478.89703 L 416.22046,310.7569 h 24.39987 l 50.14134,137.74968 49.35058,-137.74976 z"
           id="text40-5-2-2-8-3"
           style="font-size:779.765px;font-family:'open sauce';-inkscape-font-specification:'open sauce';fill:#ffffff;fill-opacity:1;stroke:#ffffff;stroke-width:1.0015748;stroke-opacity:1;stroke-dasharray:none"
           aria-label="W"
           sodipodi:nodetypes="cccccccc" />
        <path
           d="m 540.11225,310.75682 61.1612,172.18694 h 24.39987 L 688.34989,310.7569 H 663.95002 L 613.80868,448.50658 564.45822,310.75682 Z"
           id="text40-5-2-2-8-1-7"
           style="font-size:779.765px;font-family:'open sauce';-inkscape-font-specification:'open sauce';fill:#ffffff;fill-opacity:1;stroke:#ffffff;stroke-width:1.0015748;stroke-opacity:1;stroke-dasharray:none"
           aria-label="W"
           sodipodi:nodetypes="cccccccc" />
      </g>
      <path
         d="m 131.53057,362.79465 q 0,11.44832 -4.04739,21.27769 -3.93175,9.71373 -11.10141,16.88339 -8.90425,8.90426 -21.046413,13.4142 -12.142163,4.39431 -30.644507,4.39431 H 41.794199 v 64.18 H 18.897549 V 310.75681 h 46.718418 q 15.495713,0 26.250201,2.65971 10.754482,2.54407 19.080542,8.09477 9.82937,6.59146 15.14879,16.42083 5.43507,9.82937 5.43507,24.86253 z m -23.82177,0.5782 q 0,-8.90426 -3.12227,-15.49572 -3.12227,-6.59146 -9.482452,-10.75448 -5.550703,-3.58483 -12.720362,-5.08815 -7.054018,-1.61895 -17.924145,-1.61895 H 41.794199 v 68.80559 h 19.311822 q 13.876758,0 22.549731,-2.42843 8.672974,-2.54408 14.108038,-7.97914 5.43506,-5.5507 7.63222,-11.6796 2.31279,-6.12891 2.31279,-13.76112 z"
         id="text38-4-7-5-7"
         style="font-size:236.83px;font-family:'open sauce';-inkscape-font-specification:'open sauce';fill:#ffffff;stroke:#ffffff;stroke-width:1.0015748;stroke-opacity:1;stroke-dasharray:none;fill-opacity:1"
         aria-label="P" />
      <path
         d="m 807.41896,333.18228 q 10.10256,11.10171 15.43138,27.19919 5.43984,16.09748 5.43984,36.52462 0,20.42715 -5.55086,36.63564 -5.43983,16.09748 -15.32036,26.86614 -10.21357,11.21272 -24.20172,16.8746 -13.87714,5.66187 -31.75089,5.66187 -17.42968,0 -31.75089,-5.77289 -14.21019,-5.77289 -24.20173,-16.76358 -9.99153,-10.99069 -15.43137,-26.97716 -5.32882,-15.98646 -5.32882,-36.52462 0,-20.20511 5.32882,-36.19157 5.32882,-16.09748 15.54239,-27.53224 9.76951,-10.87968 24.20173,-16.65256 14.54324,-5.77289 31.63987,-5.77289 17.76273,0 31.8619,5.8839 14.21019,5.77289 24.09071,16.54155 z m -1.9983,63.72381 q 0,-32.19496 -14.43223,-49.62464 -14.43222,-17.5407 -39.41106,-17.5407 -25.20088,0 -39.63311,17.5407 -14.3212,17.42968 -14.3212,49.62464 0,32.52801 14.65426,49.84668 14.65425,17.20764 39.30005,17.20764 24.64579,0 39.18903,-17.20764 14.65426,-17.31867 14.65426,-49.84668 z"
         id="text41-0-3-4-4"
         style="font-size:227.363px;font-family:'open sauce';-inkscape-font-specification:'open sauce';fill:#ffffff;stroke:#ffffff;stroke-width:1.0015748;stroke-opacity:1;stroke-dasharray:none;fill-opacity:1"
         aria-label="O" />
      <path
         d="m 1103.6221,397.02398 q 0,23.47485 -10.2919,42.5554 -10.1763,19.08054 -27.1753,29.60375 -11.7953,7.28529 -26.3658,10.5232 -14.455,3.23791 -38.1611,3.23791 H 958.14746 V 310.75681 h 43.01794 q 25.2095,0 40.0113,3.70047 14.9175,3.58482 25.2095,9.94501 17.5772,10.98576 27.4066,29.25683 9.8293,18.27106 9.8293,43.36486 z m -23.9374,-0.34691 q 0,-20.23694 -7.054,-34.1137 -7.054,-13.87676 -21.0464,-21.85589 -10.1763,-5.78199 -21.6246,-7.97914 -11.4483,-2.31279 -27.4066,-2.31279 H 981.04411 V 463.2855 h 21.50899 q 16.5365,0 28.7943,-2.42843 12.3734,-2.42843 22.6653,-9.01989 12.836,-8.21042 19.1962,-21.62462 6.4758,-13.4142 6.4758,-33.53549 z"
         id="text43-6-9-5-1"
         style="font-size:236.83px;font-family:'open sauce';-inkscape-font-specification:'open sauce';fill:#ffffff;stroke:#ffffff;stroke-width:1.0015748;stroke-opacity:1;stroke-dasharray:none;fill-opacity:1"
         aria-label="D" />
      <path
         style="fill:#ffffff;fill-opacity:1;stroke:#ffffff;stroke-width:1.00157;stroke-dasharray:none;stroke-opacity:1"
         d="M 425.72743,482.94376 H 401.32756 L 338.65081,310.75682 h 24.39996 z"
         id="path8-7-1-6-6-1-1"
         sodipodi:nodetypes="ccccc" />
      <path
         style="fill:#ffffff;fill-opacity:1;stroke:#ffffff;stroke-width:1.00157;stroke-dasharray:none;stroke-opacity:1"
         d="M 345.5835,482.94393 H 321.18354 L 258.50688,310.75682 h 24.39988 z"
         id="path8-7-1-6-3-0-2-0"
         sodipodi:nodetypes="ccccc" />
      <path
         style="fill:#ffffff;fill-opacity:1;stroke:#ffffff;stroke-width:1.00158;stroke-dasharray:none;stroke-opacity:1"
         d="m 243.69938,482.94385 90.83744,-90.66156 6.50219,17.86296 -72.93975,72.79851 z"
         id="path45-2-1-6" />
      <path
         style="fill:#ffffff;fill-opacity:1;stroke:#ffffff;stroke-width:1.00158;stroke-dasharray:none;stroke-opacity:1"
         d="m 416.22047,310.75682 h 24.39987 l -91.08228,90.90589 -6.5022,-17.86305 z"
         id="path46-6-6-8" />
    </g>
  </g>
</svg>
